<svg width="18" height="18" viewBox="0 0 18 18" fill="none" xmlns="http://www.w3.org/2000/svg">
<path fill-rule="evenodd" clip-rule="evenodd" d="M9.125 16C13.1981 16 16.5 12.6981 16.5 8.625C16.5 4.5519 13.1981 1.25 9.125 1.25C5.0519 1.25 1.75 4.5519 1.75 8.625C1.75 12.6981 5.0519 16 9.125 16ZM9.125 17.25C13.8885 17.25 17.75 13.3885 17.75 8.625C17.75 3.86154 13.8885 0 9.125 0C4.36154 0 0.5 3.86154 0.5 8.625C0.5 13.3885 4.36154 17.25 9.125 17.25Z" fill="#D0D5DD"/>
<path fill-rule="evenodd" clip-rule="evenodd" d="M5.25313 6.53538C5.443 6.18355 5.68057 5.85804 5.96018 5.5685C6.44252 5.06902 7.03624 4.69078 7.69277 4.46472C8.34931 4.23866 9.05002 4.17118 9.73763 4.26782C10.1362 4.32384 10.5238 4.43408 10.8901 4.59443C10.9883 4.63744 11.085 4.68406 11.1799 4.7342C11.2129 4.75163 11.247 4.76605 11.2818 4.77748C11.53 4.85915 11.8116 4.78846 11.9645 4.5702C12.1387 4.32138 12.0794 3.97574 11.8144 3.82723C11.7744 3.80481 11.7341 3.7829 11.6936 3.7615C11.5714 3.69698 11.4469 3.63712 11.3204 3.58205C10.8658 3.38417 10.385 3.248 9.89072 3.17853C9.03121 3.05773 8.15532 3.14207 7.33465 3.42465C6.51398 3.70723 5.77184 4.18002 5.1689 4.80438C4.82216 5.16344 4.52712 5.56676 4.29073 6.00256C4.22493 6.12385 4.16368 6.24767 4.10712 6.37374C4.08836 6.41555 4.07013 6.4576 4.05241 6.49989C3.93504 6.78006 4.10108 7.08895 4.39156 7.17776C4.64637 7.25566 4.91186 7.13794 5.05715 6.92079C5.07749 6.89039 5.09548 6.85803 5.11075 6.824C5.1547 6.72602 5.2022 6.62975 5.25313 6.53538Z" fill="#D0D5DD"/>
<path fill-rule="evenodd" clip-rule="evenodd" d="M9.12488 11.7499C9.47006 11.7499 9.74988 11.4701 9.74988 11.1249C9.74988 10.7797 9.47006 10.4999 9.12488 10.4999C8.7797 10.4999 8.49988 10.7797 8.49988 11.1249C8.49988 11.4701 8.7797 11.7499 9.12488 11.7499ZM9.12488 12.9999C10.1604 12.9999 10.9999 12.1604 10.9999 11.1249C10.9999 10.0893 10.1604 9.24988 9.12488 9.24988C8.08934 9.24988 7.24988 10.0893 7.24988 11.1249C7.24988 12.1604 8.08934 12.9999 9.12488 12.9999Z" fill="#D0D5DD"/>
<path fill-rule="evenodd" clip-rule="evenodd" d="M14.125 6.75425L10.375 10.5042L9.49109 9.62036L13.2411 5.87036C13.4852 5.62628 13.8809 5.62628 14.125 5.87036C14.3691 6.11444 14.3691 6.51017 14.125 6.75425Z" fill="#D0D5DD"/>
</svg>
