<svg width="31" height="39" viewBox="0 0 31 39" fill="none" xmlns="http://www.w3.org/2000/svg">
<g clip-path="url(#clip0_2_80)">
<path d="M10.1967 12.2597L6.143 4.14218H14.6358L16.2804 0.692932H0.773376L8.60903 16.2382L10.1967 12.2597Z" fill="#3B3B3B"/>
<path d="M13.925 26.6363L17.9786 34.7539H9.48581L7.84125 38.2031H23.3483L15.5142 22.6579L13.925 26.6363Z" fill="#3B3B3B"/>
<path d="M30.1428 0.692932L28.5552 4.14218H21.8696L4.44314 38.2031H0.773376L19.6232 0.692932H30.1428Z" fill="url(#paint0_linear_2_80)"/>
<path d="M30.2811 0.692932L20.3812 1.54186L0.911636 38.2031L19.7598 0.692932H30.2811Z" fill="url(#paint1_linear_2_80)"/>
<path d="M27.0115 1.93718L30.125 0.692932L28.5357 4.14218H21.8517" fill="url(#paint2_linear_2_80)"/>
</g>
<defs>
<linearGradient id="paint0_linear_2_80" x1="0.773376" y1="19.4477" x2="30.1432" y2="19.4477" gradientUnits="userSpaceOnUse">
<stop stop-color="#673E98"/>
<stop offset="0.1021" stop-color="#5F5EAA"/>
<stop offset="0.2618" stop-color="#4C86C5"/>
<stop offset="0.3942" stop-color="#2CA3DD"/>
<stop offset="0.4925" stop-color="#00B6EB"/>
<stop offset="0.5456" stop-color="#00BDF1"/>
<stop offset="0.9913" stop-color="#EE4699"/>
</linearGradient>
<linearGradient id="paint1_linear_2_80" x1="0.910823" y1="19.4477" x2="30.2806" y2="19.4477" gradientUnits="userSpaceOnUse">
<stop stop-color="white"/>
<stop offset="0.9964" stop-color="white" stop-opacity="0"/>
</linearGradient>
<linearGradient id="paint2_linear_2_80" x1="21.8511" y1="2.41803" x2="30.125" y2="2.41803" gradientUnits="userSpaceOnUse">
<stop stop-color="white"/>
<stop offset="0.9964" stop-color="white" stop-opacity="0"/>
</linearGradient>
<clipPath id="clip0_2_80">
<rect width="31" height="39" fill="white"/>
</clipPath>
</defs>
</svg>
